<svg width="203.13mm" height="203.13mm" version="1.1" viewBox="0 0 203.13 203.13" xmlns="http://www.w3.org/2000/svg">
 <g transform="translate(-5.775 -37.543)">
  <path d="m5.775 139.11c0 56.093 45.471 101.56 101.56 101.56 56.093 0 101.56-45.471 101.56-101.56 0-56.093-45.471-101.56-101.56-101.56-56.093 0-101.56 45.471-101.56 101.56"/>
  <path d="m69.277 119.15 34.879-20.136v20.136l-34.879 20.139 34.879 20.139v20.136l-34.879-20.136-34.879-20.139 34.879-20.139" style="fill:#fff"/>
  <path d="m124.72 119.15 34.879-20.136v20.136l-34.879 20.139 34.879 20.139v20.136l-34.879-20.136-34.879-20.139 34.879-20.139" style="fill:#fff"/>
 </g>
</svg>
